<svg width="30" height="30" viewBox="0 0 30 30" fill="none" xmlns="http://www.w3.org/2000/svg">
<path fill-rule="evenodd" clip-rule="evenodd" d="M15 1C7.27727 1 1 7.27443 1 15C1 22.7227 7.27727 29 15 29C22.7256 29 29 22.7227 29 15C29 7.27443 22.7256 1 15 1ZM15 2.27261C22.0381 2.27261 27.7273 7.96182 27.7273 14.9999C27.7273 22.0345 22.0381 27.7272 15 27.7272C7.96534 27.7272 2.27273 22.0345 2.27273 14.9999C2.27273 7.96182 7.96534 2.27261 15 2.27261Z" fill="#050916" fill-opacity="0.6"/>
<path d="M15 0.75C7.13923 0.75 0.75 7.13633 0.75 15C0.75 22.8608 7.1392 29.25 15 29.25C22.8637 29.25 29.25 22.8608 29.25 15C29.25 7.13636 22.8636 0.75 15 0.75ZM15 2.52261C21.9 2.52261 27.4773 8.09989 27.4773 14.9999C27.4773 21.8965 21.9 27.4772 15 27.4772C8.10341 27.4772 2.52273 21.8965 2.52273 14.9999C2.52273 8.09993 8.10337 2.52261 15 2.52261Z" stroke="#050916" stroke-opacity="0.6" stroke-width="0.5"/>
<path fill-rule="evenodd" clip-rule="evenodd" d="M10.1519 9.58774C9.90422 9.61193 9.69337 9.77817 9.61214 10.0134C9.53069 10.2487 9.59416 10.5097 9.77416 10.6815L14.0894 15.0068L9.77416 19.3221C9.52425 19.572 9.52425 19.977 9.77416 20.227C10.0241 20.4769 10.4291 20.4769 10.6791 20.227L15.0043 15.9017L19.3196 20.227C19.5695 20.4769 19.9746 20.4769 20.2243 20.227C20.4742 19.977 20.4742 19.572 20.2245 19.3221L15.8992 15.0068L20.2245 10.6815C20.4143 10.4982 20.4713 10.2165 20.3677 9.97371C20.2638 9.73091 20.021 9.57731 19.7571 9.58775C19.5922 9.59174 19.4355 9.65943 19.3196 9.77684L15.0043 14.0921L10.6791 9.77684C10.5583 9.65455 10.3932 9.58641 10.2216 9.58775C10.1983 9.58664 10.1752 9.58664 10.1519 9.58775L10.1519 9.58774Z" fill="#050916" fill-opacity="0.6"/>
<path d="M10.2267 9.33773C10.4629 9.33775 10.6897 9.4322 10.8562 9.60047C10.8565 9.60071 10.8567 9.60096 10.857 9.6012L15.0041 13.7388L19.1417 9.60125C19.1419 9.60104 19.1421 9.60083 19.1423 9.60062C19.3032 9.43788 19.5205 9.3439 19.7491 9.33787C20.116 9.32415 20.4532 9.53795 20.5975 9.87539L20.5976 9.87556C20.7416 10.213 20.6628 10.6043 20.3999 10.8597L16.253 15.0066L20.4011 19.1451L20.4014 19.1454C20.7485 19.4929 20.7486 20.0561 20.4011 20.4037L10.2267 9.33773ZM10.2267 9.33773C10.2197 9.33744 10.2127 9.33723 10.2057 9.3371L10.1953 9.33231L10.1276 9.33892C9.78267 9.37261 9.48898 9.60414 9.37583 9.93183L9.61214 10.0134M10.2267 9.33773L10.1519 9.58775L10.1519 9.58774C9.90422 9.61193 9.69337 9.77817 9.61214 10.0134M9.61214 10.0134C9.53069 10.2487 9.59416 10.5097 9.77416 10.6815M9.61214 10.0134L9.3759 9.93163C9.26274 10.2585 9.35033 10.6208 9.59916 10.8601M9.77416 10.6815L9.59718 10.8581L9.59916 10.8601M9.77416 10.6815L14.0894 15.0068L9.77416 10.6815ZM9.59916 10.8601L13.7361 15.0066L9.59739 19.1453C9.24984 19.4928 9.24986 20.0562 9.59737 20.4037L9.59739 20.4037C9.94493 20.7513 10.5083 20.7513 10.8558 20.4037L10.8558 20.4037L15.0041 16.2554M9.59916 10.8601L15.0041 16.2554M15.0041 16.2554L19.1426 20.4035L19.1428 20.4037C19.4903 20.7512 20.0536 20.7513 20.4011 20.4037L15.0041 16.2554Z" stroke="#050916" stroke-opacity="0.6" stroke-width="0.5"/>
</svg>
