<svg width="26" height="26" viewBox="0 0 26 26" fill="none" xmlns="http://www.w3.org/2000/svg">
<g opacity="0.5" clip-path="url(#clip0_156_4397)">
<path d="M12.0418 20.006L11.9941 12.0062L13.9941 11.9942L14.0418 19.9941L17.0417 19.9762L13.0716 25L9.04188 20.0239L12.0418 20.006ZM19.0477 20.9643L19.0315 18.2563C20.043 17.0956 20.698 15.6677 20.918 14.1439C21.138 12.6201 20.9136 11.0652 20.2718 9.66579C19.6301 8.26636 18.5981 7.08184 17.2998 6.25438C16.0015 5.42691 14.492 4.99165 12.9524 5.00083C11.4129 5.01 9.90866 5.46322 8.62031 6.3061C7.33195 7.14898 6.31417 8.34571 5.6891 9.7527C5.06404 11.1597 4.85823 12.7171 5.09639 14.2382C5.33454 15.7592 6.00653 17.1793 7.03173 18.3279L7.04787 21.0358C5.79952 20.1126 4.78368 18.9109 4.08105 17.5264C3.37841 16.1418 3.00835 14.6124 3.00027 13.0598C2.96735 7.53688 7.41759 3.03328 12.9405 3.00037C18.4634 2.96745 22.967 7.4177 22.9999 12.9406C23.0103 14.4932 22.6585 16.0269 21.9724 17.4197C21.2864 18.8126 20.2849 20.0262 19.0477 20.9643Z" fill="white"/>
</g>
<defs>
<clipPath id="clip0_156_4397">
<rect width="24" height="24" fill="white" transform="translate(1.07178 25.0713) rotate(-90.3414)"/>
</clipPath>
</defs>
</svg>
