<svg width="23" height="23" viewBox="0 0 23 23" fill="none" xmlns="http://www.w3.org/2000/svg">
<g opacity="0.7" clip-path="url(#clip0_156_4450)">
<path d="M3 22C3 19.8783 3.84285 17.8434 5.34315 16.3431C6.84344 14.8429 8.87827 14 11 14C13.1217 14 15.1566 14.8429 16.6569 16.3431C18.1571 17.8434 19 19.8783 19 22H17C17 20.4087 16.3679 18.8826 15.2426 17.7574C14.1174 16.6321 12.5913 16 11 16C9.4087 16 7.88258 16.6321 6.75736 17.7574C5.63214 18.8826 5 20.4087 5 22H3ZM11 13C7.685 13 5 10.315 5 7C5 3.685 7.685 1 11 1C14.315 1 17 3.685 17 7C17 10.315 14.315 13 11 13ZM11 11C13.21 11 15 9.21 15 7C15 4.79 13.21 3 11 3C8.79 3 7 4.79 7 7C7 9.21 8.79 11 11 11Z" fill="white"/>
</g>
<defs>
<clipPath id="clip0_156_4450">
<rect width="24" height="24" fill="white" transform="translate(-1)"/>
</clipPath>
</defs>
</svg>
