<svg width="18" height="22" viewBox="0 0 18 22" fill="none" xmlns="http://www.w3.org/2000/svg">
<path opacity="0.5" d="M12 2.16852H2V19.5167H16V6.50556H12V2.16852ZM0 1.07559C0 0.481411 0.447 0 0.999 0H13L18 5.4213V20.5933C18.0009 20.7357 17.976 20.8769 17.9266 21.0088C17.8772 21.1408 17.8043 21.2609 17.7121 21.3623C17.6199 21.4636 17.5101 21.5443 17.3892 21.5998C17.2682 21.6552 17.1383 21.6842 17.007 21.6852H0.993C0.730378 21.6832 0.479017 21.5693 0.293218 21.368C0.107418 21.1668 0.00209465 20.8943 0 20.6096V1.07559ZM10.529 13.4947C9.69033 14.026 8.70206 14.2085 7.74847 14.0081C6.79488 13.8076 5.94106 13.238 5.34623 12.4054C4.75139 11.5728 4.45614 10.5341 4.51553 9.48284C4.57492 8.43162 4.98489 7.43971 5.669 6.69205C6.35745 5.94573 7.27329 5.49725 8.24487 5.43068C9.21646 5.3641 10.1771 5.68399 10.9467 6.3304C11.7163 6.9768 12.2421 7.90535 12.4255 8.942C12.6089 9.97865 12.4374 11.0522 11.943 11.9615L14.153 14.3578L12.739 15.892L10.529 13.4958V13.4947ZM9.911 11.2915C10.102 11.0914 10.2544 10.8522 10.3592 10.5876C10.464 10.323 10.5192 10.0385 10.5215 9.75053C10.5238 9.46259 10.4732 9.17705 10.3726 8.91054C10.2721 8.64404 10.1236 8.40192 9.93579 8.19831C9.748 7.9947 9.5247 7.83368 9.27891 7.72465C9.03312 7.61561 8.76976 7.56075 8.5042 7.56325C8.23864 7.56575 7.9762 7.62557 7.73219 7.73922C7.48818 7.85287 7.26749 8.01808 7.083 8.22519C6.71868 8.63418 6.5171 9.18195 6.52165 9.75053C6.52621 10.3191 6.73655 10.863 7.10736 11.2651C7.47818 11.6671 7.9798 11.8952 8.5042 11.9001C9.02859 11.9051 9.5338 11.6865 9.911 11.2915Z" fill="white"/>
</svg>
